<?xml version="1.0" encoding="UTF-8" standalone="no"?><svg xmlns="http://www.w3.org/2000/svg" xmlns:xlink="http://www.w3.org/1999/xlink" contentScriptType="application/ecmascript" contentStyleType="text/css" height="725px" preserveAspectRatio="none" style="width:909px;height:725px;" version="1.1" viewBox="0 0 909 725" width="909px" zoomAndPan="magnify"><defs><filter height="300%" id="ffsfik950z3ja" width="300%" x="-1" y="-1"><feGaussianBlur result="blurOut" stdDeviation="2.0"/><feColorMatrix in="blurOut" result="blurOut2" type="matrix" values="0 0 0 0 0 0 0 0 0 0 0 0 0 0 0 0 0 0 .4 0"/><feOffset dx="4.0" dy="4.0" in="blurOut2" result="blurOut3"/><feBlend in="SourceGraphic" in2="blurOut3" mode="normal"/></filter></defs><g><ellipse cx="425.5" cy="18" fill="#000000" filter="url(#ffsfik950z3ja)" rx="10" ry="10" style="stroke: none; stroke-width: 1.0;"/><rect fill="#FEFECE" filter="url(#ffsfik950z3ja)" height="71.7561" rx="12.5" ry="12.5" style="stroke: #A80036; stroke-width: 1.5;" width="289" x="281" y="89"/><line style="stroke: #A80036; stroke-width: 1.5;" x1="281" x2="570" y1="118.0679" y2="118.0679"/><text fill="#000000" font-family="sans-serif" font-size="14" lengthAdjust="spacingAndGlyphs" textLength="44" x="403.5" y="108.9659">READY</text><text fill="#000000" font-family="sans-serif" font-size="12" lengthAdjust="spacingAndGlyphs" textLength="269" x="286" y="135.896">entry / post BUCKET_SENSOR_IDLE to ControlAO</text><text fill="#000000" font-family="sans-serif" font-size="12" lengthAdjust="spacingAndGlyphs" textLength="265" x="286" y="152.2401">exit / post BUCKET_SENSOR_BUSY to ControlAO</text><rect fill="#FEFECE" filter="url(#ffsfik950z3ja)" height="55.412" rx="12.5" ry="12.5" style="stroke: #A80036; stroke-width: 1.5;" width="198" x="242.5" y="240"/><line style="stroke: #A80036; stroke-width: 1.5;" x1="242.5" x2="440.5" y1="269.0679" y2="269.0679"/><text fill="#000000" font-family="sans-serif" font-size="14" lengthAdjust="spacingAndGlyphs" textLength="94" x="294.5" y="259.9659">DEBOUNCING</text><text fill="#000000" font-family="sans-serif" font-size="12" lengthAdjust="spacingAndGlyphs" textLength="178" x="247.5" y="286.896">entry / armTimer(5ms, oneshot)</text><rect fill="#FEFECE" filter="url(#ffsfik950z3ja)" height="55.412" rx="12.5" ry="12.5" style="stroke: #A80036; stroke-width: 1.5;" width="577" x="166" y="374"/><line style="stroke: #A80036; stroke-width: 1.5;" x1="166" x2="743" y1="403.0679" y2="403.0679"/><text fill="#000000" font-family="sans-serif" font-size="14" lengthAdjust="spacingAndGlyphs" textLength="140" x="384.5" y="393.9659">CONFIRMING_CLOSE</text><text fill="#000000" font-family="sans-serif" font-size="12" lengthAdjust="spacingAndGlyphs" textLength="557" x="171" y="420.896">entry / if readSensorGPIO() then selfPost(SWITCH_OPEN, LIFO) else selfPost(SWITCH_CLOSED, LIFO)</text><rect fill="#FEFECE" filter="url(#ffsfik950z3ja)" height="71.7561" rx="12.5" ry="12.5" style="stroke: #A80036; stroke-width: 1.5;" width="389" x="129" y="508"/><line style="stroke: #A80036; stroke-width: 1.5;" x1="129" x2="518" y1="537.0679" y2="537.0679"/><text fill="#000000" font-family="sans-serif" font-size="14" lengthAdjust="spacingAndGlyphs" textLength="112" x="267.5" y="527.9659">WAIT_FOR_OPEN</text><text fill="#000000" font-family="sans-serif" font-size="12" lengthAdjust="spacingAndGlyphs" textLength="369" x="134" y="554.896">entry / if not readSensorGPIO() then selfPost(SWITCH_OPEN, LIFO)</text><text fill="#000000" font-family="sans-serif" font-size="12" lengthAdjust="spacingAndGlyphs" textLength="200" x="134" y="571.2401">exit / disarm Timer1; disarm Timer2</text><rect fill="#FEFECE" filter="url(#ffsfik950z3ja)" height="55.412" rx="12.5" ry="12.5" style="stroke: #A80036; stroke-width: 1.5;" width="373" x="6" y="659"/><line style="stroke: #A80036; stroke-width: 1.5;" x1="6" x2="379" y1="688.0679" y2="688.0679"/><text fill="#000000" font-family="sans-serif" font-size="14" lengthAdjust="spacingAndGlyphs" textLength="100" x="142.5" y="678.9659">BUCKET_FAULT</text><text fill="#000000" font-family="sans-serif" font-size="12" lengthAdjust="spacingAndGlyphs" textLength="353" x="11" y="705.896">entry / post(BUCKET_FAULT) to ControlAO; selfPost(CONTINUE)</text><rect fill="#FEFECE" filter="url(#ffsfik950z3ja)" height="55.412" rx="12.5" ry="12.5" style="stroke: #A80036; stroke-width: 1.5;" width="378" x="519.5" y="659"/><line style="stroke: #A80036; stroke-width: 1.5;" x1="519.5" x2="897.5" y1="688.0679" y2="688.0679"/><text fill="#000000" font-family="sans-serif" font-size="14" lengthAdjust="spacingAndGlyphs" textLength="136" x="640.5" y="678.9659">CONFIRMED_TIPPED</text><text fill="#000000" font-family="sans-serif" font-size="12" lengthAdjust="spacingAndGlyphs" textLength="358" x="524.5" y="705.896">entry / post(BUCKET_TIPPED) to ControlAO; selfPost(CONTINUE)</text><!--MD5=[5d051701840a39d81aec12b7f4902293]
link *start to READY--><path d="M425.5,28.32 C425.5,40.72 425.5,63.43 425.5,83.62 " fill="none" id="*start-&gt;READY" style="stroke: #A80036; stroke-width: 1.0;"/><polygon fill="#A80036" points="425.5,88.69,429.5257,79.7015,425.5143,83.69,421.5257,79.6786,425.5,88.69" style="stroke: #A80036; stroke-width: 1.0;"/><!--MD5=[5704d4d4cb38ead49ca9a350774a48d1]
link READY to DEBOUNCING--><path d="M354.44,161.14 C344.01,169.46 334.7,179.38 328.5,191 C321.42,204.27 323.13,220.56 327.25,234.6 " fill="none" id="READY-&gt;DEBOUNCING" style="stroke: #A80036; stroke-width: 1.0;"/><polygon fill="#A80036" points="328.87,239.66,329.925,229.8678,327.3404,234.8997,322.3085,232.3151,328.87,239.66" style="stroke: #A80036; stroke-width: 1.0;"/><text fill="#000000" font-family="sans-serif" font-size="13" lengthAdjust="spacingAndGlyphs" textLength="163" x="329.5" y="205.897">BUCKET_SWITCH_CLOSING</text><!--MD5=[138d0cdcd2d83783b35e9bebcd88b3be]
link DEBOUNCING to CONFIRMING_CLOSE--><path d="M364.37,295.21 C382.9,316.86 409.02,347.38 428.38,369.99 " fill="none" id="DEBOUNCING-&gt;CONFIRMING_CLOSE" style="stroke: #A80036; stroke-width: 1.0;"/><polygon fill="#A80036" points="431.67,373.83,428.8323,364.3988,428.409,370.0398,422.768,369.6164,431.67,373.83" style="stroke: #A80036; stroke-width: 1.0;"/><text fill="#000000" font-family="sans-serif" font-size="13" lengthAdjust="spacingAndGlyphs" textLength="57" x="406.5" y="339.897">TIMEOUT</text><!--MD5=[44561a558554c7ab5d14285fc9c9e8c5]
link CONFIRMING_CLOSE to WAIT_FOR_OPEN--><path d="M353.53,429.14 C340.49,436.73 328.81,446.48 320.5,459 C312.09,471.67 311.03,487.95 312.72,502.79 " fill="none" id="CONFIRMING_CLOSE-&gt;WAIT_FOR_OPEN" style="stroke: #A80036; stroke-width: 1.0;"/><polygon fill="#A80036" points="313.39,507.77,316.1458,498.3146,312.7189,502.8152,308.2182,499.3883,313.39,507.77" style="stroke: #A80036; stroke-width: 1.0;"/><text fill="#000000" font-family="sans-serif" font-size="13" lengthAdjust="spacingAndGlyphs" textLength="465" x="321.5" y="473.897">SWITCH_CLOSED /  arm Timer1(50ms, repeating); arm Timer2(500ms, oneshot)</text><!--MD5=[85cbd3b45f91555f87d50a59c37fd5cd]
link CONFIRMING_CLOSE to READY--><path d="M469.9,373.92 C491.45,333.03 525.02,252.92 497.5,191 C493.27,181.48 486.88,172.76 479.61,165.02 " fill="none" id="CONFIRMING_CLOSE-&gt;READY" style="stroke: #A80036; stroke-width: 1.0;"/><polygon fill="#A80036" points="475.99,161.3,479.4141,170.5345,479.4825,164.878,485.139,164.9465,475.99,161.3" style="stroke: #A80036; stroke-width: 1.0;"/><text fill="#000000" font-family="sans-serif" font-size="13" lengthAdjust="spacingAndGlyphs" textLength="89" x="508.5" y="272.897">SWITCH_OPEN</text><!--MD5=[96153d8bad6a6fb157655758cd0da81d]
link WAIT_FOR_OPEN to BUCKET_FAULT--><path d="M290.54,580.05 C281.44,589.74 271.58,600.27 262.5,610 C248.68,624.81 233.38,641.31 220.61,655.1 " fill="none" id="WAIT_FOR_OPEN-&gt;BUCKET_FAULT" style="stroke: #A80036; stroke-width: 1.0;"/><polygon fill="#A80036" points="217.08,658.91,226.13,655.0245,220.4773,655.2415,220.2604,649.5888,217.08,658.91" style="stroke: #A80036; stroke-width: 1.0;"/><text fill="#000000" font-family="sans-serif" font-size="13" lengthAdjust="spacingAndGlyphs" textLength="102" x="263.5" y="624.897">FAULT_TIMEOUT</text><!--MD5=[776175d6b35b07f86e0cbe28f21f9ba4]
link WAIT_FOR_OPEN to WAIT_FOR_OPEN--><path d="M518.14,532.37 C539.34,534.6 553,538.47 553,544 C553,549.05 541.58,552.73 523.43,555.02 " fill="none" id="WAIT_FOR_OPEN-&gt;WAIT_FOR_OPEN" style="stroke: #A80036; stroke-width: 1.0;"/><polygon fill="#A80036" points="518.14,555.63,527.5379,558.5761,523.1073,555.059,526.6244,550.6284,518.14,555.63" style="stroke: #A80036; stroke-width: 1.0;"/><text fill="#000000" font-family="sans-serif" font-size="13" lengthAdjust="spacingAndGlyphs" textLength="102" x="559" y="549.397">SWITCH_CLOSED</text><!--MD5=[9ff323e5e1576e80a1314f9e5800feac]
link WAIT_FOR_OPEN to CONFIRMED_TIPPED--><path d="M419.66,580.09 C484.89,603.9 570,634.96 630.91,657.18 " fill="none" id="WAIT_FOR_OPEN-&gt;CONFIRMED_TIPPED" style="stroke: #A80036; stroke-width: 1.0;"/><polygon fill="#A80036" points="635.62,658.9,628.5355,652.0582,630.9227,657.1867,625.7942,659.5739,635.62,658.9" style="stroke: #A80036; stroke-width: 1.0;"/><text fill="#000000" font-family="sans-serif" font-size="13" lengthAdjust="spacingAndGlyphs" textLength="89" x="550.5" y="624.897">SWITCH_OPEN</text><!--MD5=[3843fd249a849ba962dc8b00b8fe0da7]
link CONFIRMED_TIPPED to READY--><path d="M744.93,658.94 C775.26,633.48 813.5,592.05 813.5,545 C813.5,266.5 813.5,266.5 813.5,266.5 C813.5,213.65 684.64,175.05 575.44,151.83 " fill="none" id="CONFIRMED_TIPPED-&gt;READY" style="stroke: #A80036; stroke-width: 1.0;"/><polygon fill="#A80036" points="570.25,150.74,578.2167,156.5306,575.1398,151.7837,579.8867,148.7069,570.25,150.74" style="stroke: #A80036; stroke-width: 1.0;"/><text fill="#000000" font-family="sans-serif" font-size="13" lengthAdjust="spacingAndGlyphs" textLength="66" x="814.5" y="406.897">CONTINUE</text><!--MD5=[01a68bc1db8fb0f029f984ea76e76866]
link BUCKET_FAULT to READY--><path d="M144.09,658.82 C107.13,634.52 62.5,594.85 62.5,545 C62.5,266.5 62.5,266.5 62.5,266.5 C62.5,218.15 175.9,179.96 275.94,155.67 " fill="none" id="BUCKET_FAULT-&gt;READY" style="stroke: #A80036; stroke-width: 1.0;"/><polygon fill="#A80036" points="280.99,154.45,271.3042,152.6651,276.1286,155.619,273.1747,160.4434,280.99,154.45" style="stroke: #A80036; stroke-width: 1.0;"/><text fill="#000000" font-family="sans-serif" font-size="13" lengthAdjust="spacingAndGlyphs" textLength="66" x="63.5" y="406.897">CONTINUE</text><!--MD5=[6792f7d1ed4163e144485558412fbd7e]
@startuml
 
[*] - -> READY          

state READY            
READY : entry / post BUCKET_SENSOR_IDLE to ControlAO 
READY : exit / post BUCKET_SENSOR_BUSY to ControlAO
READY - -> DEBOUNCING : BUCKET_SWITCH_CLOSING

state DEBOUNCING       
DEBOUNCING: entry / armTimer(5ms, oneshot)
DEBOUNCING - -> CONFIRMING_CLOSE : TIMEOUT 

state CONFIRMING_CLOSE 
CONFIRMING_CLOSE : entry / if readSensorGPIO() then selfPost(SWITCH_OPEN, LIFO) else selfPost(SWITCH_CLOSED, LIFO)
CONFIRMING_CLOSE - -> WAIT_FOR_OPEN : SWITCH_CLOSED /  arm Timer1(50ms, repeating); arm Timer2(500ms, oneshot)  
CONFIRMING_CLOSE - -> READY : SWITCH_OPEN            

state WAIT_FOR_OPEN    
WAIT_FOR_OPEN : entry / if not readSensorGPIO() then selfPost(SWITCH_OPEN, LIFO)
WAIT_FOR_OPEN : exit / disarm Timer1; disarm Timer2
WAIT_FOR_OPEN - -> BUCKET_FAULT : FAULT_TIMEOUT
WAIT_FOR_OPEN - -> WAIT_FOR_OPEN : SWITCH_CLOSED 
WAIT_FOR_OPEN - -> CONFIRMED_TIPPED : SWITCH_OPEN


state CONFIRMED_TIPPED  
CONFIRMED_TIPPED : entry / post(BUCKET_TIPPED) to ControlAO; selfPost(CONTINUE)
CONFIRMED_TIPPED - -> READY : CONTINUE

state BUCKET_FAULT  
BUCKET_FAULT : entry / post(BUCKET_FAULT) to ControlAO; selfPost(CONTINUE)
BUCKET_FAULT - -> READY : CONTINUE

@enduml

PlantUML version 1.2020.02(Sun Mar 01 21:22:07 AEDT 2020)
(GPL source distribution)
Java Runtime: OpenJDK Runtime Environment
JVM: OpenJDK 64-Bit Server VM
Java Version: 21.0.11+10-1-24.04.2-Ubuntu
Operating System: Linux
Default Encoding: UTF-8
Language: en
Country: US
--></g></svg>